<svg xmlns="http://www.w3.org/2000/svg" xml:space="preserve" width="2048" height="2048" style="shape-rendering:geometricPrecision;text-rendering:geometricPrecision;image-rendering:optimizeQuality;fill-rule:evenodd;clip-rule:evenodd"><defs><clipPath id="id0"><path d="M1024-.001c565.539 0 1024 458.462 1024 1024 0 565.539-458.462 1024-1024 1024-565.539 0-1024-458.462-1024-1024 0-565.54 458.462-1024 1024-1024z"/></clipPath><style>.fil1{fill:#ffb300}</style></defs><g id="Layer_x0020_1"><path d="M1024-.001c565.539 0 1024 458.462 1024 1024 0 565.539-458.462 1024-1024 1024-565.539 0-1024-458.462-1024-1024 0-565.54 458.462-1024 1024-1024z" style="fill:#ffd54f"/><g style="clip-path:url(#id0)"><g id="_466493576"><path id="_3893002241" class="fil1" d="M1326.61 602.678 2462.49 1738.56l6.47 7.59 6.24 7.7 6.01 7.79 5.8 7.89 5.56 7.99 5.34 8.08 5.12 8.18 4.89 8.29 4.67 8.37 4.44 8.48 4.21 8.58 3.99 8.67 3.76 8.78 3.53 8.87 3.31 8.97 3.08 9.06 2.86 9.17 2.62 9.26 2.4 9.37 2.17 9.46 1.95 9.56 1.72 9.66 1.48 9.75 1.26 9.86 1.03 9.95.81 10.05.57 10.15.34 10.25.12 10.35L1422.36 862.807l-.12-10.348-.34-10.249-.58-10.15-.8-10.051-1.03-9.954-1.26-9.854-1.49-9.757-1.71-9.658-1.95-9.559-2.17-9.462-2.4-9.362-2.62-9.265-2.86-9.165-3.08-9.068-3.31-8.969-3.53-8.871-3.76-8.774-3.99-8.674-4.22-8.576-4.44-8.479-4.66-8.378-4.89-8.282-5.12-8.184-5.34-8.085-5.57-7.988-5.79-7.888-6.01-7.792-6.24-7.692z"/><path id="_389303824" class="fil1" d="M1422.36 862.807 2558.24 1998.69l-.06 7.05-.16 7.02-.27 6.96-.39 6.93-.49 6.88-.59 6.83-.71 6.79-.81 6.75-.93 6.71-1.03 6.66-1.14 6.62-1.24 6.57-1.35 6.53-1.46 6.48-1.57 6.45-1.67 6.39-1.78 6.36-1.88 6.31-1.99 6.26-2.1 6.23-2.2 6.18-2.31 6.13-2.42 6.09-2.51 6.05-2.63 6.01-2.73 5.96-2.83 5.91-2.94 5.88-3.04 5.83-3.14 5.78-3.25 5.74-3.36 5.7-1135.88-1135.88 3.36-5.7 3.24-5.74 3.15-5.79 3.04-5.83 2.94-5.87 2.83-5.92 2.73-5.96 2.62-6 2.52-6.05 2.42-6.09 2.3-6.14 2.21-6.175 2.09-6.223 2-6.266 1.88-6.311 1.78-6.354 1.67-6.398 1.57-6.442 1.46-6.485 1.35-6.53 1.24-6.573 1.14-6.617 1.03-6.661.92-6.704.82-6.749.71-6.791.59-6.837.49-6.88.39-6.923.27-6.967.16-7.013z"/><path id="_462035936" class="fil1" d="m1367.38 1066.85 1135.88 1135.88-351.31 517.15L1016.07 1584z"/><path id="_466496720" class="fil1" d="M1023.52 463.999c109.977 0 204.092 39.132 282.356 116.483 77.313 77.352 116.483 171.428 116.483 282.325 0 75.489-18.654 143.495-54.974 204.043l-351.31 517.152-330.765-510.607c-2.812-4.664-5.585-8.406-7.446-11.198-34.497-59.618-52.202-125.799-52.202-199.389-.91-110.897 38.182-204.984 116.483-282.325C819.495 503.142 913.573 464 1023.52 464z"/></g></g><path d="M1024-.001c565.539 0 1024 458.462 1024 1024 0 565.539-458.462 1024-1024 1024-565.539 0-1024-458.462-1024-1024 0-565.54 458.462-1024 1024-1024z" style="fill:none"/><path d="M1305.87 580.482c-78.263-77.35-172.378-116.483-282.356-116.483-109.948 0-204.025 39.142-281.375 116.483-78.301 77.341-117.393 171.428-116.483 282.325 0 73.59 17.705 139.771 52.201 199.389 1.862 2.792 4.635 6.534 7.447 11.198l330.764 510.607 351.31-517.152c36.32-60.548 54.975-128.554 54.975-204.043 0-110.897-39.17-204.973-116.483-282.325z" style="fill:#757575"/><path d="M1023.54 683.895c-53.114-.96-97.867 17.713-135.137 55.932-37.27 37.251-55.885 81.987-55.885 135.098 0 53.093 18.615 97.829 55.885 136.048 37.28 37.26 82.023 55.885 135.137 55.885 53.082-.009 97.827-18.614 136.019-55.885 37.269-38.219 55.923-82.934 55.923-136.048 0-53.112-18.654-97.827-55.923-135.098-38.181-38.23-82.937-56.873-136.019-55.923v-.009z" style="fill:#bdbdbd"/></g></svg>